HIERARCHY
ROOT Hips
{
	OFFSET 0.000000 83.214638 0.000000
	CHANNELS 6 Xposition Yposition Zposition Xrotation Yrotation Zrotation
	JOINT Pelvis
	{
		OFFSET 0.000000 0.000000 0.000000
		CHANNELS 3 Xrotation Yrotation Zrotation
		JOINT LeftUpLeg
		{
			OFFSET 8.479700 -4.795502 -0.379100
			CHANNELS 3 Xrotation Yrotation Zrotation
			JOINT LeftLeg
			{
				OFFSET 0.024144 -32.555107 0.112900
				CHANNELS 3 Xrotation Yrotation Zrotation
				JOINT LeftFoot
				{
					OFFSET -0.024144 -32.638630 -3.012600
					CHANNELS 3 Xrotation Yrotation Zrotation
					JOINT LeftToeBase
					{
						OFFSET 0.970200 -13.225400 11.864200
						CHANNELS 3 Xrotation Yrotation Zrotation
						End Site
						{
							OFFSET 0.000000 12.319262 0.000000
						}
					}
					JOINT LFootTongue
					{
						OFFSET 1.142400 -1.059800 6.665200
						CHANNELS 3 Xrotation Yrotation Zrotation
						End Site
						{
							OFFSET 0.000000 12.319262 0.000000
						}
					}
				}
				JOINT LeftPantLeg
				{
					OFFSET 0.918482 -16.533964 -2.284700
					CHANNELS 3 Xrotation Yrotation Zrotation
					End Site
					{
						OFFSET 0.350399 24.744368 0.000000
					}
				}
			}
		}
		JOINT RightUpLeg
		{
			OFFSET -8.479700 -4.795502 -0.379100
			CHANNELS 3 Xrotation Yrotation Zrotation
			JOINT RightLeg
			{
				OFFSET -0.023144 -32.555092 0.112900
				CHANNELS 3 Xrotation Yrotation Zrotation
				JOINT RightFoot
				{
					OFFSET 0.023144 -32.638641 -3.012700
					CHANNELS 3 Xrotation Yrotation Zrotation
					JOINT RightToeBase
					{
						OFFSET -0.970200 -13.225400 11.864200
						CHANNELS 3 Xrotation Yrotation Zrotation
						End Site
						{
							OFFSET 0.000000 12.319244 0.000000
						}
					}
					JOINT RFootTongue
					{
						OFFSET -1.142200 -1.059800 6.665200
						CHANNELS 3 Xrotation Yrotation Zrotation
						End Site
						{
							OFFSET 0.000000 12.319243 0.000000
						}
					}
				}
				JOINT RightPantLeg
				{
					OFFSET -0.919482 -16.533978 -2.284800
					CHANNELS 3 Xrotation Yrotation Zrotation
					End Site
					{
						OFFSET -0.350400 24.744419 0.000000
					}
				}
			}
		}
	}
	JOINT Spine
	{
		OFFSET 0.000000 7.722000 1.166200
		CHANNELS 3 Xrotation Yrotation Zrotation
		JOINT Spine1
		{
			OFFSET 0.000000 12.024101 0.248800
			CHANNELS 3 Xrotation Yrotation Zrotation
			JOINT Spine2
			{
				OFFSET 0.000000 11.502998 -0.491200
				CHANNELS 3 Xrotation Yrotation Zrotation
				JOINT Neck
				{
					OFFSET 0.000000 18.430702 -3.123100
					CHANNELS 3 Xrotation Yrotation Zrotation
					JOINT Head
					{
						OFFSET 0.000000 9.051102 1.034000
						CHANNELS 3 Xrotation Yrotation Zrotation
						JOINT HairB
						{
							OFFSET 0.208400 24.786102 24.822300
							CHANNELS 3 Xrotation Yrotation Zrotation
							End Site
							{
								OFFSET 0.000000 32.263779 0.000000
							}
						}
						JOINT HairA
						{
							OFFSET -7.081100 24.428299 23.196600
							CHANNELS 3 Xrotation Yrotation Zrotation
							End Site
							{
								OFFSET 0.000000 32.263779 0.000000
							}
						}
						JOINT Hat
						{
							OFFSET 16.728800 15.048294 -15.439601
							CHANNELS 3 Xrotation Yrotation Zrotation
							End Site
							{
								OFFSET 0.000000 32.263779 0.000000
							}
						}
					}
				}
				JOINT LeftShoulder
				{
					OFFSET 6.197800 13.665199 -4.064700
					CHANNELS 3 Xrotation Yrotation Zrotation
					JOINT LeftArm
					{
						OFFSET 7.778100 -0.187103 -1.709300
						CHANNELS 3 Xrotation Yrotation Zrotation
						JOINT LeftForeArm
						{
							OFFSET 22.049376 0.000000 0.000000
							CHANNELS 3 Xrotation Yrotation Zrotation
							JOINT LeftHand
							{
								OFFSET 23.009392 0.000000 0.000000
								CHANNELS 3 Xrotation Yrotation Zrotation
								JOINT LeftHandThumb1
								{
									OFFSET 3.507191 -2.063065 3.133727
									CHANNELS 3 Xrotation Yrotation Zrotation
									JOINT LeftHandThumb2
									{
										OFFSET 3.101337 -1.790558 1.790558
										CHANNELS 3 Xrotation Yrotation Zrotation
										JOINT LeftHandThumb3
										{
											OFFSET 3.058640 -1.765907 1.765906
											CHANNELS 3 Xrotation Yrotation Zrotation
											End Site
											{
												OFFSET -0.415260 3.926476 -0.049563
											}
										}
									}
								}
								JOINT LeftHandIndex1
								{
									OFFSET 11.334419 -0.901459 3.706815
									CHANNELS 3 Xrotation Yrotation Zrotation
									JOINT LeftHandIndex2
									{
										OFFSET 3.283112 0.000000 0.000000
										CHANNELS 3 Xrotation Yrotation Zrotation
										JOINT LeftHandIndex3
										{
											OFFSET 3.323853 0.000000 0.000000
											CHANNELS 3 Xrotation Yrotation Zrotation
											End Site
											{
												OFFSET -1.135597 3.097809 0.402452
											}
										}
									}
								}
								JOINT LeftHandMiddle1
								{
									OFFSET 11.335861 0.000000 0.000000
									CHANNELS 3 Xrotation Yrotation Zrotation
									JOINT LeftHandMiddle2
									{
										OFFSET 3.410492 0.000000 0.000000
										CHANNELS 3 Xrotation Yrotation Zrotation
										JOINT LeftHandMiddle3
										{
											OFFSET 3.312172 0.000000 0.000000
											CHANNELS 3 Xrotation Yrotation Zrotation
											End Site
											{
												OFFSET -1.150200 3.080154 0.400270
											}
										}
									}
								}
								JOINT LeftHandRing1
								{
									OFFSET 11.514786 -0.013176 -3.003090
									CHANNELS 3 Xrotation Yrotation Zrotation
									JOINT LeftHandRing2
									{
										OFFSET 3.053307 0.000000 0.000000
										CHANNELS 3 Xrotation Yrotation Zrotation
										JOINT LeftHandRing3
										{
											OFFSET 3.295807 0.000000 0.000000
											CHANNELS 3 Xrotation Yrotation Zrotation
											End Site
											{
												OFFSET -1.281006 3.013344 0.375733
											}
										}
									}
								}
								JOINT LeftHandPinky1
								{
									OFFSET 10.518692 -0.960396 -5.730441
									CHANNELS 3 Xrotation Yrotation Zrotation
									JOINT LeftHandPinky2
									{
										OFFSET 2.861649 0.000000 0.000000
										CHANNELS 3 Xrotation Yrotation Zrotation
										JOINT LeftHandPinky3
										{
											OFFSET 2.863380 0.000000 0.000000
											CHANNELS 3 Xrotation Yrotation Zrotation
											End Site
											{
												OFFSET -0.843597 2.711159 0.369971
											}
										}
									}
								}
							}
							JOINT LSleeve
							{
								OFFSET 6.676277 -0.344902 -1.011730
								CHANNELS 3 Xrotation Yrotation Zrotation
								End Site
								{
									OFFSET 0.000000 14.885353 0.000000
								}
							}
						}
					}
				}
				JOINT RightShoulder
				{
					OFFSET -6.197800 13.665199 -4.064700
					CHANNELS 3 Xrotation Yrotation Zrotation
					JOINT RightArm
					{
						OFFSET -7.778100 -0.187103 -1.709300
						CHANNELS 3 Xrotation Yrotation Zrotation
						JOINT RightForeArm
						{
							OFFSET -22.049376 0.000000 0.000000
							CHANNELS 3 Xrotation Yrotation Zrotation
							JOINT RightHand
							{
								OFFSET -23.009392 0.000000 0.000000
								CHANNELS 3 Xrotation Yrotation Zrotation
								JOINT RightHandThumb1
								{
									OFFSET -3.507191 -2.063065 3.133727
									CHANNELS 3 Xrotation Yrotation Zrotation
									JOINT RightHandThumb2
									{
										OFFSET -3.101337 -1.790558 1.790558
										CHANNELS 3 Xrotation Yrotation Zrotation
										JOINT RightHandThumb3
										{
											OFFSET -3.058640 -1.765907 1.765906
											CHANNELS 3 Xrotation Yrotation Zrotation
											End Site
											{
												OFFSET 0.415260 3.926476 -0.049563
											}
										}
									}
								}
								JOINT RightHandIndex1
								{
									OFFSET -11.334419 -0.901459 3.706815
									CHANNELS 3 Xrotation Yrotation Zrotation
									JOINT RightHandIndex2
									{
										OFFSET -3.283112 0.000000 0.000000
										CHANNELS 3 Xrotation Yrotation Zrotation
										JOINT RightHandIndex3
										{
											OFFSET -3.323853 0.000000 0.000000
											CHANNELS 3 Xrotation Yrotation Zrotation
											End Site
											{
												OFFSET 1.135597 3.097809 0.402452
											}
										}
									}
								}
								JOINT RightHandMiddle1
								{
									OFFSET -11.335861 0.000000 0.000000
									CHANNELS 3 Xrotation Yrotation Zrotation
									JOINT RightHandMiddle2
									{
										OFFSET -3.410492 0.000000 0.000000
										CHANNELS 3 Xrotation Yrotation Zrotation
										JOINT RightHandMiddle3
										{
											OFFSET -3.312172 0.000000 0.000000
											CHANNELS 3 Xrotation Yrotation Zrotation
											End Site
											{
												OFFSET 1.150200 3.080154 0.400270
											}
										}
									}
								}
								JOINT RightHandRing1
								{
									OFFSET -11.514786 -0.013176 -3.003090
									CHANNELS 3 Xrotation Yrotation Zrotation
									JOINT RightHandRing2
									{
										OFFSET -3.053307 0.000000 0.000000
										CHANNELS 3 Xrotation Yrotation Zrotation
										JOINT RightHandRing3
										{
											OFFSET -3.295807 0.000000 0.000000
											CHANNELS 3 Xrotation Yrotation Zrotation
											End Site
											{
												OFFSET 1.281006 3.013344 0.375733
											}
										}
									}
								}
								JOINT RightHandPinky1
								{
									OFFSET -10.518692 -0.960396 -5.730441
									CHANNELS 3 Xrotation Yrotation Zrotation
									JOINT RightHandPinky2
									{
										OFFSET -2.861649 0.000000 0.000000
										CHANNELS 3 Xrotation Yrotation Zrotation
										JOINT RightHandPinky3
										{
											OFFSET -2.863380 0.000000 0.000000
											CHANNELS 3 Xrotation Yrotation Zrotation
											End Site
											{
												OFFSET 0.843597 2.711159 0.369971
											}
										}
									}
								}
							}
							JOINT RSleeve
							{
								OFFSET -6.676277 -0.344902 -1.011730
								CHANNELS 3 Xrotation Yrotation Zrotation
								End Site
								{
									OFFSET 0.000000 14.885353 0.000000
								}
							}
						}
					}
				}
				JOINT Backpack
				{
					OFFSET 0.000000 -2.471497 36.677502
					CHANNELS 3 Xrotation Yrotation Zrotation
					End Site
					{
						OFFSET 0.000000 20.427315 0.000000
					}
				}
				JOINT Hood
				{
					OFFSET 0.000000 18.754097 -10.431000
					CHANNELS 3 Xrotation Yrotation Zrotation
					JOINT Hood1
					{
						OFFSET 0.000000 -5.011002 -7.685901
						CHANNELS 3 Xrotation Yrotation Zrotation
						End Site
						{
							OFFSET 0.000000 9.175140 0.000000
						}
					}
				}
				JOINT LHoodieString
				{
					OFFSET 5.250500 16.397697 3.089900
					CHANNELS 3 Xrotation Yrotation Zrotation
					JOINT LHoodieString1
					{
						OFFSET 0.257700 -6.364304 3.694600
						CHANNELS 3 Xrotation Yrotation Zrotation
						JOINT LHoodieString2
						{
							OFFSET 0.000000 -9.643799 2.679100
							CHANNELS 3 Xrotation Yrotation Zrotation
							End Site
							{
								OFFSET 0.000000 10.009018 0.000000
							}
						}
					}
				}
				JOINT RHoodieString
				{
					OFFSET -5.250500 16.397697 3.089900
					CHANNELS 3 Xrotation Yrotation Zrotation
					JOINT RHoodieString1
					{
						OFFSET -0.257700 -6.364304 3.694600
						CHANNELS 3 Xrotation Yrotation Zrotation
						JOINT RHoodieString2
						{
							OFFSET 0.000000 -9.643799 2.679100
							CHANNELS 3 Xrotation Yrotation Zrotation
							End Site
							{
								OFFSET 0.000000 10.009018 0.000000
							}
						}
					}
				}
			}
			JOINT LBackpack_Strap
			{
				OFFSET 15.223200 -7.719803 -6.610900
				CHANNELS 3 Xrotation Yrotation Zrotation
				End Site
				{
					OFFSET 0.000000 16.040596 0.000000
				}
			}
			JOINT RBackpack_Strap
			{
				OFFSET -15.223000 -7.719803 -6.610900
				CHANNELS 3 Xrotation Yrotation Zrotation
				End Site
				{
					OFFSET 0.000000 16.040596 0.000000
				}
			}
		}
	}
	JOINT BoyFacialAnim_Joint
	{
		OFFSET 1.000000 -82.208099 -1.550900
		CHANNELS 3 Xrotation Yrotation Zrotation
		End Site
		{
			OFFSET 0.000000 30.012791 0.000000
		}
	}
}
MOTION
Frames: 4
Frame Time: 0.033333
-79.383942 59.640228 1.448307 -5.247210 -38.945346 0.502520 0.000000 -0.000000 -0.000000 -48.260997 -13.958770 13.289533 87.060405 9.214910 9.304070 -10.526044 6.306227 -10.302654 0.000000 -0.000001 -0.000002 0.000000 -0.000001 -0.000002 -0.000002 -0.000003 -0.000005 -69.019205 -2.565485 -25.628294 82.509676 8.224309 -9.153726 -6.943945 -22.549685 9.805799 -0.000000 -0.000000 -0.000000 -0.000000 -0.000000 -0.000000 -0.000000 0.000004 -0.000001 58.000751 1.925593 2.473576 3.204721 1.583582 -3.468449 3.213532 1.295757 -3.512543 -13.135812 3.506482 -3.036145 -27.493508 -1.354464 2.494031 -0.000002 -0.000000 -0.000000 -0.000002 -0.000000 -0.000000 -0.000002 -0.000000 -0.000000 -36.537677 -27.653858 7.604101 -68.342272 -9.155520 -50.730199 -0.000000 -60.080318 0.000002 -129.029978 -4.066430 21.328420 0.936467 -0.827876 2.481909 19.182154 -2.605937 8.095723 -0.000002 0.000004 -0.000002 -1.962725 2.008705 -39.655843 2.953059 5.085144 -60.267902 -0.000003 0.000000 -0.000005 0.237230 5.375355 -52.413830 3.384647 5.307453 -65.030450 0.000002 0.000002 -0.000001 -0.289087 5.581460 -60.580718 4.417987 5.673444 -75.798844 0.000001 -0.000001 0.000003 2.193613 7.061452 -64.435185 4.414740 5.672633 -75.765895 0.000000 0.000001 -0.000003 0.000002 -0.000001 0.000001 -38.018759 5.374959 -17.015164 -44.091214 19.594558 86.796787 0.000069 114.011778 -0.000067 -23.327512 -34.432773 -16.451011 8.487858 -5.148623 10.935205 21.593969 -18.125222 -18.385756 -0.000006 0.000000 0.000001 -1.047220 1.401905 14.575566 1.420795 -3.350717 45.947605 -0.000001 -0.000000 0.000002 3.336583 -7.133635 51.476240 6.289680 -4.362259 110.540943 0.000000 -0.000000 0.000005 -3.365304 -2.493736 56.319175 5.436703 -4.591605 99.646224 -0.000000 0.000000 -0.000001 -3.960712 -3.235749 64.001297 4.063239 -4.619253 82.665062 0.000001 0.000000 0.000002 0.000001 0.000001 -0.000001 -0.000002 -0.000000 0.000001 -0.000002 -0.000000 0.000001 -0.000002 -0.000000 0.000001 -0.000002 -0.000000 0.000001 -0.000002 -0.000000 -0.000000 -0.000000 -0.000000 0.000003 -0.000002 -0.000000 0.000001 -0.000002 -0.000000 -0.000000 -0.000000 -0.000000 0.000003 0.000001 0.000000 -0.000003 0.000001 0.000000 -0.000003 0.000000 -0.000000 -0.000000 
-82.444229 60.262375 1.081398 -4.560484 -38.950796 1.208221 0.000000 0.000000 -0.000000 -51.044442 -12.639191 12.375276 86.427493 12.663813 8.764947 -4.210628 5.389139 -3.320049 0.000001 -0.000001 0.000001 0.000001 -0.000001 0.000001 0.000004 -0.000002 0.000001 -68.360823 -4.187247 -24.785238 84.705438 8.604372 -8.199102 -11.881085 -23.790136 6.487302 0.000000 -0.000000 0.000000 0.000000 -0.000000 0.000000 0.000000 0.000001 -0.000001 58.106113 1.742308 2.275150 3.072632 1.529448 -3.346416 3.127281 1.253397 -3.436102 -13.294049 3.453220 -2.854672 -27.714261 -1.380855 2.606436 -0.000000 -0.000002 0.000001 -0.000000 -0.000002 0.000001 -0.000000 -0.000002 0.000001 -36.505998 -27.623831 7.708188 -68.259968 -9.098491 -50.544961 -0.000010 -60.392690 -0.000005 -128.945406 -4.232640 21.606890 1.067399 -0.539322 2.426189 19.216172 -2.478329 8.047305 -0.000002 -0.000001 -0.000001 -1.983657 1.946606 -39.408337 2.948127 5.082328 -60.212113 0.000001 -0.000000 -0.000000 0.296892 5.410420 -52.224248 3.380360 5.305469 -64.984052 0.000005 0.000002 0.000001 -0.285237 5.577555 -60.501379 4.414338 5.672516 -75.762050 0.000003 -0.000002 0.000001 2.206096 7.067385 -64.435315 4.413558 5.672338 -75.753970 -0.000003 -0.000000 0.000003 0.000004 -0.000001 0.000000 -38.014302 5.469735 -16.883053 -44.129784 19.585112 86.759433 0.000006 114.045595 -0.000002 -23.504612 -34.394220 -16.447772 8.474607 -5.109265 10.978020 21.618030 -18.179906 -18.384438 -0.000004 0.000000 0.000001 -1.060816 1.420223 14.675184 1.420791 -3.350696 45.947355 0.000000 -0.000000 -0.000000 3.342800 -7.140317 51.436170 6.289846 -4.362189 110.543067 0.000001 0.000001 -0.000000 -3.352463 -2.513024 56.395584 5.437915 -4.591418 99.661305 0.000002 0.000001 0.000001 -3.939471 -3.252326 64.043904 4.056936 -4.618455 82.586918 -0.000002 -0.000001 -0.000002 0.000000 -0.000000 0.000002 0.000002 -0.000001 0.000001 0.000002 -0.000001 0.000001 0.000002 -0.000001 0.000001 0.000002 -0.000001 0.000001 0.000002 -0.000001 0.000003 0.000001 -0.000000 0.000001 0.000002 -0.000001 0.000001 0.000002 -0.000001 0.000003 0.000001 -0.000000 0.000001 -0.000004 0.000001 -0.000001 -0.000004 0.000001 -0.000001 0.000000 0.000000 -0.000000 
-85.342819 61.106720 0.723858 -3.499620 -39.257229 2.112513 -0.000000 0.000000 0.000000 -53.344880 -9.528703 11.620437 86.963642 9.811556 8.770216 -4.963384 5.808323 -2.623759 -0.000000 0.000000 -0.000001 -0.000000 0.000000 -0.000002 0.000003 0.000002 0.000003 -67.528339 -6.207744 -24.111999 85.597433 8.855221 -7.065378 -16.294352 -23.996816 2.956101 0.000000 -0.000000 -0.000000 0.000000 -0.000000 -0.000000 0.000002 -0.000001 -0.000000 57.931848 1.759256 1.879388 3.092466 1.517370 -3.223495 3.068108 1.262572 -3.341173 -13.571192 3.536408 -3.054320 -27.886990 -1.413485 2.814697 0.000001 0.000000 -0.000000 0.000001 0.000000 -0.000000 0.000001 0.000000 -0.000000 -36.466517 -27.423995 7.832256 -68.468637 -8.710919 -50.668652 0.000091 -60.876390 0.000088 -128.450928 -4.277918 22.076848 1.322539 -0.000438 2.359610 19.326362 -2.052814 7.873273 -0.000001 0.000002 -0.000001 -1.971160 1.956300 -39.369470 2.944393 5.080192 -60.170073 -0.000002 -0.000000 -0.000002 0.373907 5.468165 -52.191022 3.380257 5.305420 -64.982973 0.000007 0.000002 0.000002 -0.248460 5.604270 -60.579912 4.411717 5.671857 -75.735542 0.000000 0.000001 -0.000002 2.202436 7.065641 -64.435287 4.413857 5.672418 -75.756968 0.000002 0.000000 -0.000002 0.000001 -0.000003 0.000002 -38.015856 5.585896 -16.774426 -44.242503 19.630001 86.764501 0.000065 114.109307 -0.000085 -23.648560 -34.339852 -16.435056 8.449616 -5.051237 10.983514 21.629387 -18.206991 -18.385679 -0.000007 0.000001 0.000000 -1.076585 1.446780 14.774360 1.421143 -3.351001 45.953168 -0.000003 -0.000001 0.000002 3.362507 -7.152893 51.504117 6.291030 -4.361745 110.558920 -0.000000 -0.000000 0.000005 -3.333931 -2.548151 56.559523 5.438784 -4.591269 99.672199 0.000001 0.000001 0.000004 -3.940822 -3.271757 64.183800 4.053479 -4.617958 82.543628 0.000000 -0.000001 0.000000 -0.000000 0.000001 0.000001 0.000000 0.000001 -0.000001 0.000000 0.000001 -0.000001 0.000000 0.000001 -0.000001 0.000000 0.000001 -0.000001 0.000000 0.000001 -0.000003 -0.000000 -0.000002 0.000002 0.000000 0.000001 -0.000001 0.000000 0.000001 -0.000003 -0.000000 -0.000002 0.000002 -0.000002 -0.000001 0.000002 -0.000002 -0.000001 0.000002 -0.000000 0.000000 0.000000 
-88.024376 62.159454 0.387198 -2.301947 -39.913617 2.973172 0.000000 -0.000000 0.000000 -55.915292 -5.819903 11.559856 86.893899 6.541997 7.595796 -6.563754 6.971212 -5.652583 -0.000001 -0.000000 -0.000001 -0.000001 -0.000000 -0.000001 0.000001 -0.000002 0.000002 -66.330440 -8.504683 -23.482274 85.186215 9.075408 -5.776376 -19.871833 -23.252884 -0.459514 0.000000 0.000000 -0.000000 0.000000 0.000000 -0.000000 -0.000000 0.000003 0.000000 57.765403 1.928376 1.179652 3.066117 1.558976 -3.133590 3.023135 1.317844 -3.256151 -13.620651 3.661360 -3.359941 -27.982148 -1.449621 3.078727 0.000001 0.000003 -0.000000 0.000001 0.000003 -0.000000 0.000001 0.000003 -0.000000 -36.446955 -27.253092 7.891936 -68.686561 -8.182678 -50.641536 0.000091 -61.716360 0.000079 -127.835269 -4.385318 22.773944 1.448024 0.243211 2.473097 19.385561 -1.827977 7.782300 -0.000002 0.000001 -0.000000 -1.918739 2.060051 -39.638528 2.944049 5.079995 -60.166009 0.000004 0.000001 -0.000003 0.398787 5.494522 -52.322394 3.381571 5.306035 -64.997159 0.000002 0.000001 0.000000 -0.170690 5.661495 -60.762087 4.414970 5.672685 -75.768395 0.000005 0.000002 -0.000000 2.192930 7.061129 -64.435171 4.414798 5.672657 -75.766517 -0.000002 -0.000000 -0.000002 -0.000002 -0.000001 0.000000 -38.024490 5.718680 -16.688476 -44.443259 19.715519 86.834087 0.000028 114.230522 -0.000044 -23.763813 -34.276826 -16.408368 8.422812 -4.992299 10.978990 21.620588 -18.187172 -18.384863 -0.000002 -0.000000 0.000002 -1.085214 1.456732 14.841171 1.421919 -3.351783 45.966893 -0.000000 0.000000 0.000005 3.377510 -7.164162 51.518023 6.291531 -4.361554 110.565272 0.000001 0.000001 -0.000002 -3.325685 -2.573589 56.704104 5.440636 -4.590948 99.695367 0.000000 0.000000 0.000004 -3.950170 -3.287245 64.323300 4.061891 -4.619070 82.648308 0.000001 0.000000 0.000004 0.000002 -0.000000 0.000001 0.000001 -0.000000 0.000002 0.000001 -0.000000 0.000002 0.000001 -0.000000 0.000002 0.000001 -0.000000 0.000002 0.000001 -0.000000 0.000001 -0.000002 0.000000 0.000001 0.000001 -0.000000 0.000002 0.000001 -0.000000 0.000001 -0.000002 0.000000 0.000001 -0.000000 0.000000 -0.000000 -0.000000 0.000000 -0.000000 0.000000 -0.000000 0.000000 
